<svg version="1.1" id="Layer_1" xmlns="http://www.w3.org/2000/svg" xmlns:xlink="http://www.w3.org/1999/xlink" x="0px" y="0px"
	 width="100%" viewBox="0 0 500 500" enable-background="new 0 0 500 500" xml:space="preserve">
<path fill="#245228" opacity="1.000000" stroke="none" 
	d="
M1.000000,497.000000 
	C1.000000,331.737976 1.000000,166.475952 1.000000,1.000000 
	C164.024841,1.000000 327.049774,1.000000 490.537292,1.468657 
	C490.999847,162.877884 490.999847,323.818451 490.999481,484.759003 
	C490.999481,486.924866 490.822632,489.107086 491.027588,491.253113 
	C491.440247,495.573395 489.716675,497.462067 485.317322,497.027863 
	C483.172638,496.816223 480.989288,496.999359 478.823425,496.999359 
	C319.548950,496.999847 160.274475,496.999939 1.000000,497.000000 
M238.978577,445.163971 
	C238.978577,445.163971 239.030457,444.976746 238.654724,444.423920 
	C220.271194,430.614166 201.904587,416.781799 183.500122,402.999969 
	C157.358017,383.423981 131.158234,363.924866 105.044121,344.311676 
	C94.053024,336.056732 86.355942,325.611725 85.919937,311.358917 
	C85.768906,306.421906 84.034988,303.372742 80.122269,300.722198 
	C74.748154,297.081604 69.766418,292.866028 64.446007,289.140381 
	C61.465382,287.053131 58.285389,285.111511 54.940990,283.711639 
	C47.820316,280.731110 42.428757,281.912079 38.127251,286.862701 
	C33.309666,292.407288 32.383110,299.058289 36.488667,305.306610 
	C38.900589,308.977386 42.103359,312.405975 45.633377,315.021912 
	C82.449005,342.303986 119.402138,369.400543 156.319565,396.545258 
	C170.818115,407.205750 185.265244,417.937408 199.842728,428.488892 
	C211.579193,436.984009 224.237732,443.462219 238.978577,445.163971 
M454.482758,328.967377 
	C452.207397,321.696655 449.385620,314.543854 447.785065,307.127502 
	C445.397949,296.066315 444.430542,284.683746 441.767395,273.702728 
	C440.200897,267.243530 437.704620,260.336761 433.597473,255.278976 
	C411.391052,227.932693 395.519897,197.516266 386.514130,163.472580 
	C385.281311,158.812286 383.851227,154.166046 382.040405,149.704910 
	C378.598206,141.224609 369.828766,138.465103 361.996979,143.283035 
	C355.864807,147.055405 353.617340,152.747192 353.879395,159.856934 
	C355.006531,190.435379 363.322693,219.671677 370.373810,249.142639 
	C371.876068,255.421585 370.960510,259.673187 366.893585,262.626404 
	C362.658173,265.701965 358.004425,265.312622 352.639343,261.426178 
	C351.829742,260.839752 351.038879,260.227509 350.238220,259.628723 
	C297.528259,220.208145 244.858170,180.733902 192.031006,141.470993 
	C187.869614,138.378113 182.819443,136.019104 177.818161,134.632172 
	C171.188614,132.793701 166.392715,136.649811 162.718185,141.953278 
	C159.270874,146.928787 159.098846,152.124207 162.749588,156.808655 
	C165.678665,160.567123 169.103073,164.123947 172.893768,166.996948 
	C199.586624,187.227676 226.453644,207.228409 253.215454,227.368484 
	C262.801239,234.582443 272.302399,241.911713 281.741333,249.316910 
	C287.210297,253.607529 288.236328,259.740082 284.619019,264.694366 
	C280.915161,269.767212 274.528137,270.426056 268.678711,266.324493 
	C267.724213,265.655212 266.809235,264.929474 265.877869,264.227325 
	C222.501480,231.525253 179.170929,198.761948 135.679901,166.213058 
	C131.237671,162.888474 126.067917,160.143646 120.814484,158.396484 
	C114.514526,156.301270 109.110161,159.176926 105.045914,165.164215 
	C101.256882,170.746078 101.038498,175.745224 105.452110,181.289001 
	C108.519402,185.141708 112.289978,188.583832 116.231956,191.567902 
	C159.278214,224.153656 202.422836,256.609467 245.528564,289.116699 
	C247.653076,290.718842 249.862503,292.281281 251.688095,294.191284 
	C255.206497,297.872253 255.416245,303.496124 252.485367,307.529572 
	C249.510223,311.623932 244.214859,313.157715 239.580200,311.036285 
	C237.789001,310.216461 236.165939,308.972992 234.577332,307.775177 
	C199.052505,280.989746 163.599304,254.108612 127.955475,227.482651 
	C123.790894,224.371704 118.802849,221.921204 113.816841,220.461670 
	C107.315613,218.558594 102.249435,221.872589 98.495773,227.279312 
	C94.807571,232.591751 94.755730,238.039337 98.604340,243.046829 
	C101.309639,246.566711 104.541183,249.837906 108.052986,252.553940 
	C120.178207,261.931702 132.530029,271.016449 144.794296,280.214478 
	C174.655182,302.609711 204.532562,324.983002 234.361099,347.421295 
	C240.219391,351.828125 241.474838,358.006653 237.850204,363.084106 
	C234.109222,368.324524 227.582184,368.943481 221.528305,364.618042 
	C220.308304,363.746399 219.121201,362.828552 217.921371,361.928741 
	C191.392319,342.033478 164.890747,322.101318 138.298996,302.290222 
	C135.124191,299.924988 131.628342,297.811005 127.984413,296.293396 
	C120.921005,293.351654 115.444916,294.663757 111.197800,299.646606 
	C106.324715,305.363861 105.399689,311.768097 109.741386,318.045624 
	C112.610077,322.193390 116.431419,325.928833 120.483734,328.973877 
	C168.840836,365.310699 217.468170,401.289459 265.688354,437.806183 
	C282.112549,450.244080 299.989014,457.939087 320.443085,460.127686 
	C335.758667,461.766449 350.751678,465.046936 364.583801,472.141388 
	C372.109375,476.001282 379.417969,476.328430 387.146698,472.962189 
	C438.153046,450.746277 465.720276,412.049347 468.899963,356.397766 
	C469.096375,352.959808 467.236755,349.090118 465.447266,345.922028 
	C462.265198,340.288574 458.403839,335.038818 454.482758,328.967377 
M301.859680,128.431091 
	C290.891327,127.531570 282.549591,134.551193 283.183746,145.376511 
	C283.892242,157.470779 285.532074,169.536102 287.379517,181.519531 
	C287.823883,184.401978 290.136078,187.624664 292.529205,189.475708 
	C307.148743,200.783646 322.032593,211.750122 336.850952,222.800079 
	C338.115387,223.742950 339.545013,224.464264 340.897888,225.288498 
	C341.379211,225.038391 341.860535,224.788284 342.341858,224.538162 
	C338.496643,211.097244 339.328613,196.308609 332.231964,184.013214 
	C325.280426,171.969330 318.582611,160.041763 314.709167,146.637756 
	C313.602936,142.809662 312.622009,138.735428 310.506165,135.472809 
	C308.683105,132.661606 305.327332,130.844376 301.859680,128.431091 
M103.352623,276.706024 
	C100.037453,273.965790 96.758286,271.180603 93.400558,268.493530 
	C81.845139,259.246124 73.849205,248.135223 74.095810,232.524826 
	C74.117065,231.178986 73.565155,229.274857 72.593140,228.548492 
	C63.946033,222.086502 55.548794,215.138748 46.268929,209.719467 
	C37.793545,204.769958 30.465557,207.167572 25.283369,214.539841 
	C20.590691,221.215729 21.361834,227.531418 28.510117,234.505875 
	C32.652649,238.547684 37.450645,241.941513 42.091118,245.444885 
	C58.291485,257.675537 74.512161,269.880585 90.854164,281.920197 
	C92.384605,283.047729 95.300682,283.904114 96.738159,283.194458 
	C99.293999,281.932709 101.210075,279.375031 103.352623,276.706024 
M57.492085,149.915588 
	C54.953262,148.692535 52.508606,147.188644 49.857735,146.299774 
	C42.283585,143.760071 36.176327,145.978821 31.659903,152.605286 
	C27.639011,158.504700 28.072943,164.099869 33.200077,170.387085 
	C34.663097,172.181122 36.250557,173.963181 38.082951,175.352356 
	C52.521854,186.298676 67.007607,197.184113 81.578156,207.954041 
	C82.642799,208.740952 84.912201,209.169754 85.885262,208.570221 
	C88.799461,206.774612 91.348099,204.385712 94.204597,202.096024 
	C93.641495,201.175751 93.330498,200.395920 92.793533,199.830780 
	C84.899689,191.523026 80.364311,181.936142 80.697548,170.192612 
	C80.746338,168.472931 79.111145,166.221039 77.609879,165.025986 
	C71.239868,159.955200 64.626595,155.190018 57.492085,149.915588 
M109.935669,137.177094 
	C116.136353,137.177094 122.337036,137.177094 128.537720,137.177094 
	C123.446655,132.277466 117.974243,128.026184 112.084709,124.464714 
	C109.350182,122.811111 105.851524,121.980728 102.616806,121.687820 
	C96.196419,121.106461 90.087257,125.959671 87.695015,132.846008 
	C85.930862,137.924347 87.576775,143.015778 91.375580,145.818802 
	C97.539627,142.880112 103.334442,140.117462 109.935669,137.177094 
M131.517105,138.499084 
	C131.517105,138.499084 131.460876,138.515167 131.517105,138.499084 
z"/>
<path fill="#000000" opacity="1.000000" stroke="none" 
	d="
M1.000000,497.500000 
	C160.274475,496.999939 319.548950,496.999847 478.823425,496.999359 
	C480.989288,496.999359 483.172638,496.816223 485.317322,497.027863 
	C489.716675,497.462067 491.440247,495.573395 491.027588,491.253113 
	C490.822632,489.107086 490.999481,486.924866 490.999481,484.759003 
	C490.999847,323.818451 490.999847,162.877884 490.999939,1.468657 
	C494.333344,1.000000 497.666656,1.000000 501.000000,1.000000 
	C501.000000,167.666641 501.000000,334.333282 501.000000,500.999939 
	C334.333405,500.999939 167.666794,500.999939 1.000090,500.999969 
	C1.000000,500.000000 1.000000,499.000000 1.000000,497.500000 
z"/>
<path fill="#6DAE4D" opacity="1.000000" stroke="none" 
	d="
M454.654724,329.297974 
	C458.403839,335.038818 462.265198,340.288574 465.447266,345.922028 
	C467.236755,349.090118 469.096375,352.959808 468.899963,356.397766 
	C465.720276,412.049347 438.153046,450.746277 387.146698,472.962189 
	C379.417969,476.328430 372.109375,476.001282 364.583801,472.141388 
	C350.751678,465.046936 335.758667,461.766449 320.443085,460.127686 
	C299.989014,457.939087 282.112549,450.244080 265.688354,437.806183 
	C217.468170,401.289459 168.840836,365.310699 120.483734,328.973877 
	C116.431419,325.928833 112.610077,322.193390 109.741386,318.045624 
	C105.399689,311.768097 106.324715,305.363861 111.197800,299.646606 
	C115.444916,294.663757 120.921005,293.351654 127.984413,296.293396 
	C131.628342,297.811005 135.124191,299.924988 138.298996,302.290222 
	C164.890747,322.101318 191.392319,342.033478 217.921371,361.928741 
	C219.121201,362.828552 220.308304,363.746399 221.528305,364.618042 
	C227.582184,368.943481 234.109222,368.324524 237.850204,363.084106 
	C241.474838,358.006653 240.219391,351.828125 234.361099,347.421295 
	C204.532562,324.983002 174.655182,302.609711 144.794296,280.214478 
	C132.530029,271.016449 120.178207,261.931702 108.052986,252.553940 
	C104.541183,249.837906 101.309639,246.566711 98.604340,243.046829 
	C94.755730,238.039337 94.807571,232.591751 98.495773,227.279312 
	C102.249435,221.872589 107.315613,218.558594 113.816841,220.461670 
	C118.802849,221.921204 123.790894,224.371704 127.955475,227.482651 
	C163.599304,254.108612 199.052505,280.989746 234.577332,307.775177 
	C236.165939,308.972992 237.789001,310.216461 239.580200,311.036285 
	C244.214859,313.157715 249.510223,311.623932 252.485367,307.529572 
	C255.416245,303.496124 255.206497,297.872253 251.688095,294.191284 
	C249.862503,292.281281 247.653076,290.718842 245.528564,289.116699 
	C202.422836,256.609467 159.278214,224.153656 116.231956,191.567902 
	C112.289978,188.583832 108.519402,185.141708 105.452110,181.289001 
	C101.038498,175.745224 101.256882,170.746078 105.045914,165.164215 
	C109.110161,159.176926 114.514526,156.301270 120.814484,158.396484 
	C126.067917,160.143646 131.237671,162.888474 135.679901,166.213058 
	C179.170929,198.761948 222.501480,231.525253 265.877869,264.227325 
	C266.809235,264.929474 267.724213,265.655212 268.678711,266.324493 
	C274.528137,270.426056 280.915161,269.767212 284.619019,264.694366 
	C288.236328,259.740082 287.210297,253.607529 281.741333,249.316910 
	C272.302399,241.911713 262.801239,234.582443 253.215454,227.368484 
	C226.453644,207.228409 199.586624,187.227676 172.893768,166.996948 
	C169.103073,164.123947 165.678665,160.567123 162.749588,156.808655 
	C159.098846,152.124207 159.270874,146.928787 162.718185,141.953278 
	C166.392715,136.649811 171.188614,132.793701 177.818161,134.632172 
	C182.819443,136.019104 187.869614,138.378113 192.031006,141.470993 
	C244.858170,180.733902 297.528259,220.208145 350.238220,259.628723 
	C351.038879,260.227509 351.829742,260.839752 352.639343,261.426178 
	C358.004425,265.312622 362.658173,265.701965 366.893585,262.626404 
	C370.960510,259.673187 371.876068,255.421585 370.373810,249.142639 
	C363.322693,219.671677 355.006531,190.435379 353.879395,159.856934 
	C353.617340,152.747192 355.864807,147.055405 361.996979,143.283035 
	C369.828766,138.465103 378.598206,141.224609 382.040405,149.704910 
	C383.851227,154.166046 385.281311,158.812286 386.514130,163.472580 
	C395.519897,197.516266 411.391052,227.932693 433.597473,255.278976 
	C437.704620,260.336761 440.200897,267.243530 441.767395,273.702728 
	C444.430542,284.683746 445.397949,296.066315 447.785065,307.127502 
	C449.385620,314.543854 452.207397,321.696655 454.654724,329.297974 
z"/>
<path fill="#479944" opacity="1.000000" stroke="none" 
	d="
M238.921219,445.096558 
	C224.237732,443.462219 211.579193,436.984009 199.842728,428.488892 
	C185.265244,417.937408 170.818115,407.205750 156.319565,396.545258 
	C119.402138,369.400543 82.449005,342.303986 45.633377,315.021912 
	C42.103359,312.405975 38.900589,308.977386 36.488667,305.306610 
	C32.383110,299.058289 33.309666,292.407288 38.127251,286.862701 
	C42.428757,281.912079 47.820316,280.731110 54.940990,283.711639 
	C58.285389,285.111511 61.465382,287.053131 64.446007,289.140381 
	C69.766418,292.866028 74.748154,297.081604 80.122269,300.722198 
	C84.034988,303.372742 85.768906,306.421906 85.919937,311.358917 
	C86.355942,325.611725 94.053024,336.056732 105.044121,344.311676 
	C131.158234,363.924866 157.358017,383.423981 183.500122,402.999969 
	C201.904587,416.781799 220.271194,430.614166 238.815201,444.730225 
	C238.975677,445.036499 238.921219,445.096558 238.921219,445.096558 
z"/>
<path fill="#479944" opacity="1.000000" stroke="none" 
	d="
M302.254456,128.509399 
	C305.327332,130.844376 308.683105,132.661606 310.506165,135.472809 
	C312.622009,138.735428 313.602936,142.809662 314.709167,146.637756 
	C318.582611,160.041763 325.280426,171.969330 332.231964,184.013214 
	C339.328613,196.308609 338.496643,211.097244 342.341858,224.538162 
	C341.860535,224.788284 341.379211,225.038391 340.897888,225.288498 
	C339.545013,224.464264 338.115387,223.742950 336.850952,222.800079 
	C322.032593,211.750122 307.148743,200.783646 292.529205,189.475708 
	C290.136078,187.624664 287.823883,184.401978 287.379517,181.519531 
	C285.532074,169.536102 283.892242,157.470779 283.183746,145.376511 
	C282.549591,134.551193 290.891327,127.531570 302.254456,128.509399 
z"/>
<path fill="#479944" opacity="1.000000" stroke="none" 
	d="
M103.373192,277.032715 
	C101.210075,279.375031 99.293999,281.932709 96.738159,283.194458 
	C95.300682,283.904114 92.384605,283.047729 90.854164,281.920197 
	C74.512161,269.880585 58.291485,257.675537 42.091118,245.444885 
	C37.450645,241.941513 32.652649,238.547684 28.510117,234.505875 
	C21.361834,227.531418 20.590691,221.215729 25.283369,214.539841 
	C30.465557,207.167572 37.793545,204.769958 46.268929,209.719467 
	C55.548794,215.138748 63.946033,222.086502 72.593140,228.548492 
	C73.565155,229.274857 74.117065,231.178986 74.095810,232.524826 
	C73.849205,248.135223 81.845139,259.246124 93.400558,268.493530 
	C96.758286,271.180603 100.037453,273.965790 103.373192,277.032715 
z"/>
<path fill="#479944" opacity="1.000000" stroke="none" 
	d="
M57.797134,150.114380 
	C64.626595,155.190018 71.239868,159.955200 77.609879,165.025986 
	C79.111145,166.221039 80.746338,168.472931 80.697548,170.192612 
	C80.364311,181.936142 84.899689,191.523026 92.793533,199.830780 
	C93.330498,200.395920 93.641495,201.175751 94.204597,202.096024 
	C91.348099,204.385712 88.799461,206.774612 85.885262,208.570221 
	C84.912201,209.169754 82.642799,208.740952 81.578156,207.954041 
	C67.007607,197.184113 52.521854,186.298676 38.082951,175.352356 
	C36.250557,173.963181 34.663097,172.181122 33.200077,170.387085 
	C28.072943,164.099869 27.639011,158.504700 31.659903,152.605286 
	C36.176327,145.978821 42.283585,143.760071 49.857735,146.299774 
	C52.508606,147.188644 54.953262,148.692535 57.797134,150.114380 
z"/>
<path fill="#479944" opacity="1.000000" stroke="none" 
	d="
M109.532463,137.265961 
	C103.334442,140.117462 97.539627,142.880112 91.375580,145.818802 
	C87.576775,143.015778 85.930862,137.924347 87.695015,132.846008 
	C90.087257,125.959671 96.196419,121.106461 102.616806,121.687820 
	C105.851524,121.980728 109.350182,122.811111 112.084709,124.464714 
	C117.974243,128.026184 123.446655,132.277466 128.537720,137.177094 
	C122.337036,137.177094 116.136353,137.177094 109.532463,137.265961 
z"/>
<path fill="#479944" opacity="1.000000" stroke="none" 
	d="
M131.488983,138.507126 
	C131.460876,138.515167 131.517105,138.499084 131.488983,138.507126 
z"/>
<path fill="#479944" opacity="1.000000" stroke="none" 
	d="
M239.003067,445.006622 
	C239.030457,444.976746 238.978577,445.163971 238.949890,445.130249 
	C238.921219,445.096558 238.975677,445.036499 239.003067,445.006622 
z"/>
</svg>