<svg version="1.1" id="Layer_1" xmlns="http://www.w3.org/2000/svg" xmlns:xlink="http://www.w3.org/1999/xlink" x="0px" y="0px"
	 width="100%" viewBox="0 0 225 225" enable-background="new 0 0 225 225" xml:space="preserve">
<path fill="#FEFEFE" opacity="1.000000" stroke="none" 
	d="
M226.000000,142.000000 
	C226.000000,169.969040 226.000000,197.938080 226.000000,225.953552 
	C151.113922,225.953552 76.227791,225.953552 1.000000,225.953552 
	C1.000000,197.313339 1.000000,168.625336 1.369869,139.622040 
	C3.637614,156.081635 17.329109,168.711014 34.252762,169.253372 
	C40.241894,169.445328 46.235806,169.695724 52.223854,169.621704 
	C54.986721,169.587555 56.260532,170.504761 57.271851,173.123093 
	C61.458515,183.962524 65.920349,194.695908 70.306145,205.458038 
	C71.895004,209.356873 74.024673,212.206024 78.993286,212.279510 
	C83.845116,212.351273 85.780090,209.553406 87.303032,205.837402 
	C91.644325,195.244598 96.069328,184.683746 100.213097,174.013885 
	C101.397049,170.965317 102.794678,169.792664 106.283669,169.789139 
	C134.416885,169.760757 162.550278,169.505798 190.682678,169.224442 
	C207.242447,169.058838 218.633041,160.801682 224.179489,145.261780 
	C224.592270,144.105255 225.384277,143.084091 226.000000,142.000000 
z"/>
<path fill="#030303" opacity="1.000000" stroke="none" 
	d="
M226.000000,141.571533 
	C225.384277,143.084091 224.592270,144.105255 224.179489,145.261780 
	C218.633041,160.801682 207.242447,169.058838 190.682678,169.224442 
	C162.550278,169.505798 134.416885,169.760757 106.283669,169.789139 
	C102.794678,169.792664 101.397049,170.965317 100.213097,174.013885 
	C96.069328,184.683746 91.644325,195.244598 87.303032,205.837402 
	C85.780090,209.553406 83.845116,212.351273 78.993286,212.279510 
	C74.024673,212.206024 71.895004,209.356873 70.306145,205.458038 
	C65.920349,194.695908 61.458515,183.962524 57.271851,173.123093 
	C56.260532,170.504761 54.986721,169.587555 52.223854,169.621704 
	C46.235806,169.695724 40.241894,169.445328 34.252762,169.253372 
	C17.329109,168.711014 3.637614,156.081635 1.369869,139.153381 
	C1.000000,136.299988 1.000000,133.599976 1.389387,130.253113 
	C1.856171,103.726166 1.941037,77.846100 1.968414,51.965965 
	C1.969107,51.310986 1.336988,50.655338 1.000000,50.000000 
	C1.000000,48.611111 1.000000,47.222221 1.365483,45.271751 
	C2.949579,28.134642 20.014439,14.575264 35.308876,14.719733 
	C87.399101,15.211769 139.497437,14.951185 191.592117,14.791656 
	C204.727325,14.751432 214.145432,20.846689 220.738403,31.533962 
	C223.227615,35.569016 224.288193,40.485378 226.000000,45.000000 
	C226.000000,45.750000 226.000000,46.500000 225.603806,47.811905 
	C225.139557,76.920128 225.064728,105.466438 225.045242,134.012787 
	C225.044800,134.674973 225.667801,135.337585 226.000000,136.000000 
	C226.000000,137.714355 226.000000,139.428711 226.000000,141.571533 
M159.500153,31.746157 
	C118.195053,31.820292 76.889893,31.873415 35.584900,31.986914 
	C27.658911,32.008694 21.419260,36.675877 19.367285,44.197945 
	C18.676830,46.728989 18.516569,49.471863 18.526344,52.116394 
	C18.629766,80.091438 18.728254,108.067131 19.030769,136.040451 
	C19.129539,145.173477 25.464993,151.656723 34.583309,152.178970 
	C42.725353,152.645294 50.907967,153.042114 59.045727,152.741074 
	C65.474510,152.503250 68.869957,155.291855 70.952759,160.997620 
	C73.234222,167.247604 75.932785,173.345306 78.904999,180.624756 
	C82.270798,172.585068 85.122772,165.741577 88.000969,158.909134 
	C89.798363,154.642380 92.732269,152.754822 97.662445,152.762573 
	C128.806458,152.811417 159.950958,152.573456 191.095245,152.420059 
	C200.472946,152.373886 207.807846,145.728287 207.959137,136.470917 
	C208.364578,111.663490 208.538345,86.851822 208.693420,62.041145 
	C208.726654,56.724037 208.661179,51.356941 207.989349,46.096123 
	C206.927551,37.781860 199.745819,31.823896 191.479767,31.803427 
	C181.153259,31.777853 170.826721,31.764679 159.500153,31.746157 
z"/>
<path fill="#FBFBFB" opacity="1.000000" stroke="none" 
	d="
M226.000000,44.531342 
	C224.288193,40.485378 223.227615,35.569016 220.738403,31.533962 
	C214.145432,20.846689 204.727325,14.751432 191.592117,14.791656 
	C139.497437,14.951185 87.399101,15.211769 35.308876,14.719733 
	C20.014439,14.575264 2.949579,28.134642 1.365483,44.855083 
	C1.000000,30.353855 1.000000,15.707710 1.000008,1.061510 
	C76.000023,1.061455 151.000031,1.061455 226.000000,1.061455 
	C226.000000,15.436168 226.000000,29.749426 226.000000,44.531342 
z"/>
<path fill="#A0A0A0" opacity="1.000000" stroke="none" 
	d="
M226.000000,135.531342 
	C225.667801,135.337585 225.044800,134.674973 225.045242,134.012787 
	C225.064728,105.466438 225.139557,76.920128 225.603806,48.186905 
	C226.000000,77.020897 226.000000,106.041786 226.000000,135.531342 
z"/>
<path fill="#A1A1A1" opacity="1.000000" stroke="none" 
	d="
M1.000000,50.468658 
	C1.336988,50.655338 1.969107,51.310986 1.968414,51.965965 
	C1.941037,77.846100 1.856171,103.726166 1.389387,129.803131 
	C1.000000,103.645775 1.000000,77.291542 1.000000,50.468658 
z"/>
<path fill="#FEFEFE" opacity="1.000000" stroke="none" 
	d="
M160.000183,31.746155 
	C170.826721,31.764679 181.153259,31.777853 191.479767,31.803427 
	C199.745819,31.823896 206.927551,37.781860 207.989349,46.096123 
	C208.661179,51.356941 208.726654,56.724037 208.693420,62.041145 
	C208.538345,86.851822 208.364578,111.663490 207.959137,136.470917 
	C207.807846,145.728287 200.472946,152.373886 191.095245,152.420059 
	C159.950958,152.573456 128.806458,152.811417 97.662445,152.762573 
	C92.732269,152.754822 89.798363,154.642380 88.000969,158.909134 
	C85.122772,165.741577 82.270798,172.585068 78.904999,180.624756 
	C75.932785,173.345306 73.234222,167.247604 70.952759,160.997620 
	C68.869957,155.291855 65.474510,152.503250 59.045727,152.741074 
	C50.907967,153.042114 42.725353,152.645294 34.583309,152.178970 
	C25.464993,151.656723 19.129539,145.173477 19.030769,136.040451 
	C18.728254,108.067131 18.629766,80.091438 18.526344,52.116394 
	C18.516569,49.471863 18.676830,46.728989 19.367285,44.197945 
	C21.419260,36.675877 27.658911,32.008694 35.584900,31.986914 
	C76.889893,31.873415 118.195053,31.820292 160.000183,31.746155 
z"/>
</svg>