<svg version="1.1" id="Layer_1" xmlns="http://www.w3.org/2000/svg" xmlns:xlink="http://www.w3.org/1999/xlink" x="0px" y="0px"
	 width="100%" viewBox="0 0 225 225" enable-background="new 0 0 225 225" xml:space="preserve">
<path fill="#FEFEFE" opacity="1.000000" stroke="none" 
	d="
M1.000000,103.000000 
	C1.000000,69.035187 1.000000,35.070374 1.000000,1.052781 
	C75.887161,1.052781 150.774368,1.052781 226.000000,1.052781 
	C226.000000,32.686756 226.000000,64.374718 225.657471,96.422279 
	C222.596542,88.756035 217.702011,84.950890 209.588501,84.861778 
	C200.768433,84.764908 191.926636,84.514603 183.135025,85.028259 
	C179.721130,85.227722 175.050156,86.354889 173.329437,88.760292 
	C168.704025,95.226219 164.270981,92.472214 159.462662,89.979149 
	C156.381821,88.381737 153.275787,86.790756 150.369095,84.906754 
	C136.974319,76.224739 129.758255,64.210640 130.165970,47.869530 
	C130.448166,36.558506 130.056717,25.231314 130.294708,13.918254 
	C130.400284,8.899609 128.179840,6.555858 123.498634,5.939342 
	C122.346779,5.787642 121.211761,5.511953 120.065392,5.314157 
	C101.508720,2.112324 86.735550,11.172995 82.424103,28.713404 
	C81.404709,32.860645 81.074608,37.254265 81.006851,41.543705 
	C80.820808,53.320702 80.942657,65.102570 80.942657,77.287956 
	C78.927101,77.287956 77.309181,77.287941 75.691261,77.287956 
	C61.710117,77.288094 47.728966,77.277138 33.747837,77.292007 
	C23.180370,77.303246 14.064832,80.844231 7.778372,89.521065 
	C4.865926,93.540955 3.220072,98.478485 1.000000,103.000000 
z"/>
<path fill="#050505" opacity="1.000000" stroke="none" 
	d="
M1.000000,103.460632 
	C3.220072,98.478485 4.865926,93.540955 7.778372,89.521065 
	C14.064832,80.844231 23.180370,77.303246 33.747837,77.292007 
	C47.728966,77.277138 61.710117,77.288094 75.691261,77.287956 
	C77.309181,77.287941 78.927101,77.287956 80.942657,77.287956 
	C80.942657,65.102570 80.820808,53.320702 81.006851,41.543705 
	C81.074608,37.254265 81.404709,32.860645 82.424103,28.713404 
	C86.735550,11.172995 101.508720,2.112324 120.065392,5.314157 
	C121.211761,5.511953 122.346779,5.787642 123.498634,5.939342 
	C128.179840,6.555858 130.400284,8.899609 130.294708,13.918254 
	C130.056717,25.231314 130.448166,36.558506 130.165970,47.869530 
	C129.758255,64.210640 136.974319,76.224739 150.369095,84.906754 
	C153.275787,86.790756 156.381821,88.381737 159.462662,89.979149 
	C164.270981,92.472214 168.704025,95.226219 173.329437,88.760292 
	C175.050156,86.354889 179.721130,85.227722 183.135025,85.028259 
	C191.926636,84.514603 200.768433,84.764908 209.588501,84.861778 
	C217.702011,84.950890 222.596542,88.756035 225.657471,96.890938 
	C226.000000,131.020889 226.000000,165.041794 225.671631,199.669678 
	C222.540161,208.492294 217.595947,212.173126 209.116913,212.271408 
	C204.618744,212.323563 200.117477,212.196869 195.621307,212.305145 
	C191.846237,212.396072 189.283508,210.750809 189.115082,207.010437 
	C188.927490,202.844604 191.872681,201.258072 195.653549,201.179337 
	C199.983856,201.089172 204.317871,201.114532 208.649429,201.163406 
	C213.062302,201.213196 214.934219,199.003815 214.929337,194.691940 
	C214.894348,163.867035 214.908875,133.042084 214.912476,102.217155 
	C214.912979,97.926445 212.964478,95.845154 208.498581,95.935104 
	C201.170227,96.082710 193.836716,95.969994 186.505386,95.975990 
	C179.426971,95.981781 178.573456,96.835945 178.566299,104.131912 
	C178.549622,121.127266 178.606293,138.122787 178.546326,155.117966 
	C178.499878,168.275375 178.841003,181.463104 178.063232,194.581223 
	C177.201233,209.119781 164.324936,221.714478 149.756943,221.885315 
	C115.438553,222.287735 81.107513,222.340332 46.790916,221.863556 
	C29.307549,221.620636 17.535551,211.030823 14.458046,193.703308 
	C10.943635,173.915909 8.159885,153.999680 4.905993,134.164490 
	C3.851381,127.735741 2.315657,121.385918 1.000000,115.000000 
	C1.000000,111.307091 1.000000,107.614182 1.000000,103.460632 
M20.207394,92.554520 
	C14.507533,97.358994 11.214877,103.288841 12.418027,110.914429 
	C16.535061,137.008286 20.869717,163.067947 24.948603,189.167648 
	C27.241007,203.836121 34.981888,210.904617 49.759186,210.936462 
	C82.085472,211.006088 114.412056,210.996964 146.738403,210.947952 
	C158.297745,210.930435 167.094528,203.111496 167.232666,191.568680 
	C167.579300,162.602097 167.347214,133.628601 167.347214,104.783348 
	C163.600311,103.439613 159.930008,102.425140 156.519058,100.849319 
	C139.119690,92.811066 125.013741,81.570023 120.496727,61.740433 
	C119.473640,57.249115 119.306099,52.504669 119.226585,47.868477 
	C119.047607,37.432930 119.170433,26.992212 119.170433,16.658133 
	C103.446632,14.242555 95.356041,19.840139 92.638428,34.661591 
	C92.161835,37.260792 92.071754,39.957592 92.059044,42.610542 
	C92.000755,54.774338 92.034142,66.938568 92.033134,79.102638 
	C92.032433,87.599564 91.231789,88.382065 82.509705,88.383476 
	C66.513115,88.386063 50.509007,88.112862 34.524658,88.555244 
	C29.920692,88.682671 25.373636,90.866280 20.207394,92.554520 
z"/>
<path fill="#FDFDFD" opacity="1.000000" stroke="none" 
	d="
M1.000000,115.468658 
	C2.315657,121.385918 3.851381,127.735741 4.905993,134.164490 
	C8.159885,153.999680 10.943635,173.915909 14.458046,193.703308 
	C17.535551,211.030823 29.307549,221.620636 46.790916,221.863556 
	C81.107513,222.340332 115.438553,222.287735 149.756943,221.885315 
	C164.324936,221.714478 177.201233,209.119781 178.063232,194.581223 
	C178.841003,181.463104 178.499878,168.275375 178.546326,155.117966 
	C178.606293,138.122787 178.549622,121.127266 178.566299,104.131912 
	C178.573456,96.835945 179.426971,95.981781 186.505386,95.975990 
	C193.836716,95.969994 201.170227,96.082710 208.498581,95.935104 
	C212.964478,95.845154 214.912979,97.926445 214.912476,102.217155 
	C214.908875,133.042084 214.894348,163.867035 214.929337,194.691940 
	C214.934219,199.003815 213.062302,201.213196 208.649429,201.163406 
	C204.317871,201.114532 199.983856,201.089172 195.653549,201.179337 
	C191.872681,201.258072 188.927490,202.844604 189.115082,207.010437 
	C189.283508,210.750809 191.846237,212.396072 195.621307,212.305145 
	C200.117477,212.196869 204.618744,212.323563 209.116913,212.271408 
	C217.595947,212.173126 222.540161,208.492294 225.671631,200.138336 
	C226.000000,208.656174 226.000000,217.312363 226.000000,225.984268 
	C151.101227,225.984268 76.202461,225.984268 1.000000,225.984268 
	C1.000000,189.313004 1.000000,152.625153 1.000000,115.468658 
z"/>
<path fill="#FEFEFE" opacity="1.000000" stroke="none" 
	d="
M20.503941,92.330841 
	C25.373636,90.866280 29.920692,88.682671 34.524658,88.555244 
	C50.509007,88.112862 66.513115,88.386063 82.509705,88.383476 
	C91.231789,88.382065 92.032433,87.599564 92.033134,79.102638 
	C92.034142,66.938568 92.000755,54.774338 92.059044,42.610542 
	C92.071754,39.957592 92.161835,37.260792 92.638428,34.661591 
	C95.356041,19.840139 103.446632,14.242555 119.170433,16.658133 
	C119.170433,26.992212 119.047607,37.432930 119.226585,47.868477 
	C119.306099,52.504669 119.473640,57.249115 120.496727,61.740433 
	C125.013741,81.570023 139.119690,92.811066 156.519058,100.849319 
	C159.930008,102.425140 163.600311,103.439613 167.347214,104.783348 
	C167.347214,133.628601 167.579300,162.602097 167.232666,191.568680 
	C167.094528,203.111496 158.297745,210.930435 146.738403,210.947952 
	C114.412056,210.996964 82.085472,211.006088 49.759186,210.936462 
	C34.981888,210.904617 27.241007,203.836121 24.948603,189.167648 
	C20.869717,163.067947 16.535061,137.008286 12.418027,110.914429 
	C11.214877,103.288841 14.507533,97.358994 20.503941,92.330841 
z"/>
</svg>