<svg version="1.1" id="Layer_1" xmlns="http://www.w3.org/2000/svg" xmlns:xlink="http://www.w3.org/1999/xlink" x="0px" y="0px"
	 width="100%" viewBox="0 0 250 260" enable-background="new 0 0 250 260" xml:space="preserve">
<path fill="#004B7C" opacity="1.000000" stroke="none" 
	d="
M1.341396,258.337280 
	C1.000000,173.881531 1.043473,89.762978 0.873548,5.644858 
	C0.864916,1.371905 2.011000,0.895531 5.850117,0.901753 
	C86.137230,1.031883 166.424652,1.026440 246.711823,0.910859 
	C250.206421,0.905828 251.112869,1.490815 251.106720,5.207250 
	C250.967819,89.158890 251.000000,173.110809 251.000000,257.531342 
	C246.638168,260.904633 241.787140,259.329224 237.178162,259.331451 
	C165.812302,259.366150 94.446373,259.375458 23.080460,259.365662 
	C16.651924,259.364777 10.226087,259.717133 3.789690,259.366302 
	C2.874869,259.316467 2.411269,258.782471 1.341396,258.337280 
z"/>
<path fill="#000000" opacity="1.000000" stroke="none" 
	d="
M1.000000,258.500000 
	C84.020897,258.000000 167.041794,258.000000 250.531342,258.000000 
	C251.911438,261.410706 249.708145,261.026489 247.512711,261.025391 
	C185.135025,260.993896 122.757332,261.000000 60.379635,261.000000 
	C41.583157,261.000000 22.786638,261.015045 3.990285,260.966400 
	C2.721121,260.963135 0.387943,262.071960 1.000000,258.500000 
z"/>
<path fill="#1485BD" opacity="1.000000" stroke="none" 
	d="
M175.586243,230.350861 
	C162.521317,234.230225 149.932465,238.062088 137.271515,241.638748 
	C131.490387,243.271896 125.505287,243.963959 119.478874,243.971924 
	C100.488869,243.997040 81.498459,244.059845 62.508919,243.965347 
	C50.480824,243.905502 45.043476,236.209381 48.710785,224.753036 
	C50.292713,219.811203 48.908138,216.779633 44.154922,214.777817 
	C32.724827,209.964066 30.691761,201.528839 38.689285,192.100693 
	C43.269382,186.701294 41.464886,181.296265 34.449379,179.400818 
	C27.379646,177.490723 23.554377,173.326599 23.206499,167.162018 
	C22.841082,160.686676 27.018543,155.523727 33.804760,154.063568 
	C39.617149,152.812943 42.114109,150.345047 41.679333,146.280640 
	C41.245220,142.222366 38.242218,140.196548 32.381123,140.008072 
	C23.342634,139.717468 17.838840,136.173889 15.666961,129.246796 
	C13.132963,121.164749 17.026247,114.336205 25.312666,112.737961 
	C28.063410,112.207420 30.942287,112.199127 33.762936,112.195030 
	C62.581123,112.153152 91.399513,112.209419 120.217522,112.125076 
	C128.386185,112.101173 131.289780,107.150436 127.628098,99.913704 
	C126.801331,98.279716 125.872681,96.697174 124.986931,95.093155 
	C119.909882,85.899139 115.336784,76.467987 111.239746,66.790482 
	C106.043465,54.516479 103.553833,41.680607 102.599915,28.461763 
	C102.277275,23.990782 103.393440,20.208630 106.965614,17.356121 
	C112.074440,13.276545 117.546928,14.366251 119.699654,20.494013 
	C128.289734,44.945900 144.429535,64.023666 162.558456,81.756096 
	C175.796921,94.705025 187.716675,108.855164 199.500275,123.091187 
	C203.352097,127.744644 207.367233,130.133224 213.458832,130.072784 
	C227.723160,129.931229 230.308060,131.751205 233.579361,145.711609 
	C239.334198,170.270493 237.953537,194.676361 230.353363,218.682587 
	C228.919235,223.212448 227.247452,227.923782 222.197617,230.478027 
	C220.216660,229.588547 218.468277,230.069183 216.433868,230.356201 
	C215.305862,230.547577 214.487625,230.576904 213.262421,230.554321 
	C206.858841,228.988144 200.787003,230.271240 194.779388,230.301727 
	C188.529999,230.333450 182.282120,230.353836 175.586243,230.350861 
z"/>
<path fill="#0A689D" opacity="1.000000" stroke="none" 
	d="
M97.602028,89.397385 
	C100.963188,91.608887 104.033096,93.606842 107.080765,95.638176 
	C107.760765,96.091415 108.607765,96.602097 108.339607,97.582077 
	C108.080559,98.528748 107.116478,98.639587 106.295265,98.703178 
	C104.969185,98.805832 103.635132,98.842575 102.304428,98.843048 
	C80.326752,98.850960 58.349056,98.864059 36.371399,98.840828 
	C28.520451,98.832535 28.036493,98.356888 28.023888,90.732895 
	C27.998009,75.082169 27.990236,59.431255 28.056467,43.780766 
	C28.063704,42.070869 27.209942,39.648575 29.320438,38.879868 
	C30.920067,38.297241 32.269005,40.169716 33.458534,41.252785 
	C53.227184,59.252220 75.313599,74.158272 97.602028,89.397385 
z"/>
<path fill="#178DC6" opacity="1.000000" stroke="none" 
	d="
M175.476761,230.538239 
	C176.195999,230.064560 177.249649,229.253937 178.309174,229.246185 
	C188.864838,229.169037 199.421600,229.206039 209.977570,229.280319 
	C210.743774,229.285690 211.506180,229.833862 212.562897,230.316040 
	C208.933929,230.576218 205.012405,230.650040 200.644348,230.786774 
	C193.041611,232.264221 185.816589,231.184036 178.228333,231.153687 
	C177.156723,230.766571 176.485321,230.670242 175.476761,230.538239 
z"/>
<path fill="#004373" opacity="1.000000" stroke="none" 
	d="
M178.231567,231.009521 
	C184.962341,230.809830 192.096558,230.756790 199.714294,230.776718 
	C193.034973,232.692703 185.841965,232.416702 178.231567,231.009521 
z"/>
<path fill="#178DC6" opacity="1.000000" stroke="none" 
	d="
M216.532471,230.566895 
	C217.808105,229.168289 219.554993,228.850647 221.636505,230.366394 
	C220.226791,230.562561 218.583801,230.589035 216.532471,230.566895 
z"/>
</svg>