<svg version="1.1" id="Layer_1" xmlns="http://www.w3.org/2000/svg" xmlns:xlink="http://www.w3.org/1999/xlink" x="0px" y="0px"
	 width="100%" viewBox="0 0 250 225" enable-background="new 0 0 250 225" xml:space="preserve">
<path fill="#77280C" opacity="1.000000" stroke="none" 
	d="
M1.000000,220.000000 
	C1.000000,147.068863 1.000000,74.137733 1.000000,1.000000 
	C82.354111,1.000000 163.708405,1.000000 245.531296,1.468657 
	C245.999634,72.255836 246.000961,142.574356 245.996613,212.892883 
	C245.996170,219.979095 245.980194,219.996063 238.949905,219.996460 
	C159.633270,220.000870 80.316635,219.999680 1.000000,220.000000 
M231.340164,84.306221 
	C233.804047,74.074821 233.642365,63.958393 229.919464,53.258987 
	C225.482605,41.347683 219.141968,31.011700 208.014832,23.936516 
	C195.055573,15.696375 181.277969,12.330346 166.079239,14.841317 
	C151.943878,17.176611 140.963562,24.864788 131.078003,34.750408 
	C123.898880,41.929577 122.511955,41.429089 115.114265,34.742413 
	C109.357819,29.539238 103.373154,24.136156 96.557762,20.638014 
	C71.707458,7.883079 41.303219,15.773147 24.814486,38.502281 
	C8.419435,61.102280 10.659616,92.451797 30.468687,112.276505 
	C60.267124,142.098465 90.277901,171.708298 120.214027,201.392548 
	C121.113503,202.284424 122.187477,203.000305 123.262260,203.864304 
	C124.600098,202.602020 125.708458,201.601578 126.766891,200.550858 
	C145.451645,182.001938 164.108322,163.424683 182.819519,144.902481 
	C192.284836,135.532776 201.846359,126.260239 212.090225,116.698166 
	C213.708633,114.924156 215.327042,113.150154 217.222916,110.827393 
	C223.835693,103.297150 229.081741,95.036339 231.340164,84.306221 
z"/>
<path fill="#000000" opacity="1.000000" stroke="none" 
	d="
M1.000000,220.499481 
	C80.316635,219.999680 159.633270,220.000870 238.949905,219.996460 
	C245.980194,219.996063 245.996170,219.979095 245.996613,212.892883 
	C246.000961,142.574356 245.999634,72.255836 245.999954,1.468657 
	C247.664948,1.000000 249.329910,1.000000 250.996155,1.000000 
	C250.997437,75.921219 250.997437,150.842438 250.997437,225.881836 
	C167.666809,225.881836 84.333412,225.881836 1.000000,225.881836 
	C1.000000,224.328827 1.000000,222.663879 1.000000,220.499481 
z"/>
<path fill="#DF704D" opacity="1.000000" stroke="none" 
	d="
M211.364380,116.943764 
	C201.846359,126.260239 192.284836,135.532776 182.819519,144.902481 
	C164.108322,163.424683 145.451645,182.001938 126.766891,200.550858 
	C125.708458,201.601578 124.600098,202.602020 123.262260,203.864304 
	C122.187477,203.000305 121.113503,202.284424 120.214027,201.392548 
	C90.277901,171.708298 60.267124,142.098465 30.468687,112.276505 
	C10.659616,92.451797 8.419435,61.102280 24.814486,38.502281 
	C41.303219,15.773147 71.707458,7.883079 96.557762,20.638014 
	C103.373154,24.136156 109.357819,29.539238 115.114265,34.742413 
	C122.511955,41.429089 123.898880,41.929577 131.078003,34.750408 
	C140.963562,24.864788 151.943878,17.176611 166.079239,14.841317 
	C181.277969,12.330346 195.055573,15.696375 208.014832,23.936516 
	C219.141968,31.011700 225.482605,41.347683 229.881775,53.966179 
	C230.202301,61.864098 230.591553,69.053467 230.903625,76.246201 
	C231.030197,79.163490 230.988693,82.088081 231.023682,85.009346 
	C229.081741,95.036339 223.835693,103.297150 216.787308,111.309479 
	C214.689255,113.508965 213.026825,115.226364 211.364380,116.943764 
z"/>
<path fill="#DC6E4B" opacity="1.000000" stroke="none" 
	d="
M231.181915,84.657784 
	C230.988693,82.088081 231.030197,79.163490 230.903625,76.246201 
	C230.591553,69.053467 230.202301,61.864098 229.928467,54.333595 
	C233.642365,63.958393 233.804047,74.074821 231.181915,84.657784 
z"/>
<path fill="#712408" opacity="1.000000" stroke="none" 
	d="
M211.727295,116.820969 
	C213.026825,115.226364 214.689255,113.508965 216.648575,111.583855 
	C215.327042,113.150154 213.708633,114.924156 211.727295,116.820969 
z"/>
</svg>