<svg class="svg-icon" style="width: 1em; height: 1em;vertical-align: middle;fill: currentColor;overflow: hidden;" viewBox="0 0 1024 1024" version="1.1" xmlns="http://www.w3.org/2000/svg"><path d="M828.2 465.8v155.6l111.3 50.7V407.8zM215.5 387.3h557.6v345.8H215.5z" fill="#25B195" /><path d="M724.3 765h-545c-41.3 0-74.8-33.6-74.8-74.8V349.8c0-41.3 33.6-74.8 74.8-74.8h544.9c41.3 0 74.8 33.6 74.8 74.8v340.4c0.1 41.2-33.5 74.8-74.7 74.8z m-545-445.4c-16.6 0-30.2 13.5-30.2 30.2v340.4c0 16.6 13.5 30.2 30.2 30.2h544.9c16.6 0 30.2-13.5 30.2-30.2V349.8c0-16.6-13.5-30.2-30.2-30.2H179.3z" fill="#666767" /><path d="M902.4 689.8c-7.8 0-15.7-1.7-22.9-5.2l-109.2-52.3 19.3-40.3 109.2 52.3c3 1.4 6.3 0.6 7.7-0.3V395.9c-1.4-0.9-4.7-1.7-7.7-0.3L789.4 448l-19.3-40.3 109.4-52.4c16.2-7.8 35.7-6.7 50.8 2.8 13 8.2 20.8 21.8 20.8 36.3v251.1c0 14.5-7.8 28.1-20.8 36.3-8.3 5.3-18.1 8-27.9 8z" fill="#666767" /></svg>